<svg xmlns="http://www.w3.org/2000/svg" width="1200" height="630" viewBox="0 0 1200 630" role="img" aria-label="Faysk DevOps Engineer preview">
  <defs>
    <radialGradient id="glow" cx="88%" cy="8%" r="58%">
      <stop offset="0" stop-color="#b8f36b" stop-opacity=".12"/>
      <stop offset="1" stop-color="#b8f36b" stop-opacity="0"/>
    </radialGradient>
  </defs>
  <rect width="1200" height="630" fill="#0b0d0c"/>
  <rect width="1200" height="630" fill="url(#glow)"/>
  <path d="M72 64H1128" stroke="#f3f2e9" stroke-opacity=".14"/>
  <path d="M72 566H1128" stroke="#f3f2e9" stroke-opacity=".14"/>

  <g transform="translate(72 98)">
    <rect width="54" height="54" rx="13" fill="#11150f" stroke="#b8f36b" stroke-opacity=".28"/>
    <path d="M13 41V13h23v8H22v6h12v7H22v7h-9z" fill="#f3f2e9"/>
    <path d="M35 16h8a5 5 0 0 1 0 10h-8M35 30h8a5 5 0 0 1 0 10h-8" fill="none" stroke="#b8f36b" stroke-width="4" stroke-linecap="round"/>
  </g>

  <circle cx="157" cy="111" r="5" fill="#b8f36b"/>
  <text x="174" y="119" fill="#b8f36b" font-family="Consolas, monospace" font-size="20" font-weight="700" letter-spacing="2">FAYSK / DEVOPS ENGINEER</text>

  <text x="72" y="292" fill="#f3f2e9" font-family="Arial, sans-serif" font-size="86" font-weight="800" letter-spacing="-4">Reliable systems.</text>
  <text x="72" y="388" fill="#7c857f" font-family="Arial, sans-serif" font-size="86" font-weight="800" letter-spacing="-4">Repeatable delivery.</text>

  <text x="76" y="468" fill="#d8dbd3" font-family="Arial, sans-serif" font-size="27">Infrastructure behind dependable software — from commit to production.</text>

  <g fill="#a6afa8" font-family="Consolas, monospace" font-size="17" font-weight="700" letter-spacing="1">
    <text x="72" y="603">INFRASTRUCTURE</text>
    <text x="280" y="603">/</text>
    <text x="318" y="603">CI/CD</text>
    <text x="410" y="603">/</text>
    <text x="448" y="603">CLOUD OPERATIONS</text>
  </g>
  <text x="1128" y="603" text-anchor="end" fill="#7c857f" font-family="Consolas, monospace" font-size="17">FAYSK.DEV</text>
</svg>